PathFileType	4	(X/Y/Z)	Patient4_TMGait_0pt4_01_right_16.trc.trc
DataRate	CameraRate	NumFrames	NumMarkers	Units	OrigDataRate	OrigDataStartFrame	OrigNumFrames
75.675675675676	75.675675675676	4	33	mm	75.675675675676	71	       141
Frame#	Time	Sacral			L.Shoulder			Chest			R.Shoulder			Neck			R.ASIS			L.ASIS			R.Thigh.Superior			R.Thigh.Lateral			R.Thigh.Inferior			R.Patella			L.Thigh.Superior			L.Thigh.Lateral			L.Thigh.Inferior			L.Patella			L.Shank.Superior			L.Shank.Lateral			L.Shank.Inferior			R.Shank.Superior			R.Shank.Lateral			R.Shank.Inferior			R.Heel			R.Midfoot.Superior			R.Midfoot.Lateral			R.Toe			L.Heel			L.Midfoot.Lateral			L.Midfoot.Superior			L.Toe			L.Elbow			L.Wrist			R.Elbow			R.Wrist			
		X1	Y1	Z1	X2	Y2	Z2	X3	Y3	Z3	X4	Y4	Z4	X5	Y5	Z5	X6	Y6	Z6	X7	Y7	Z7	X8	Y8	Z8	X9	Y9	Z9	X10	Y10	Z10	X11	Y11	Z11	X12	Y12	Z12	X13	Y13	Z13	X14	Y14	Z14	X15	Y15	Z15	X16	Y16	Z16	X17	Y17	Z17	X18	Y18	Z18	X19	Y19	Z19	X20	Y20	Z20	X21	Y21	Z21	X22	Y22	Z22	X23	Y23	Z23	X24	Y24	Z24	X25	Y25	Z25	X26	Y26	Z26	X27	Y27	Z27	X28	Y28	Z28	X29	Y29	Z29	X30	Y30	Z30	X31	Y31	Z31	X32	Y32	Z32	X33	Y33	Z33	

71	21.555000000000	707.370812113743	1007.352931778760	455.112839761528	857.985711278545	1433.361587169502	256.718084171397	993.944322584174	1359.102669971616	388.039254952997	955.567495346530	1429.896966754181	578.990872310364	883.246942784063	1491.448876016042	419.834728147099	952.278817208834	934.577253776457	530.019171472999	893.263698609214	961.794747873014	262.740833769097	953.658586532455	724.199084757504	501.994037612779	861.122555663922	626.826543328559	574.349245340570	917.218765115038	564.079850715062	488.584079963063	902.165623823041	478.670297790252	495.903695909833	965.830156278775	768.743964505882	282.437157665812	902.291540960304	641.865478858274	213.105775756941	1009.622778846332	580.411246145610	261.856913423370	1029.420394460510	510.917422302170	257.166100062570	1005.755458708641	437.492194264068	249.099590409483	920.744306204279	315.845796275277	206.399043561948	1000.354995945599	207.449264678143	254.270707194022	864.715941524026	393.530832041206	505.918390282073	786.104269398717	299.584776021056	575.687834838163	808.848768077729	200.522521661509	508.685668912332	656.252334433356	43.138555747593	486.855264664440	829.884628985803	94.710181082417	515.274888965808	742.216988546849	36.288718990895	558.286708910295	950.035248399664	39.371072767927	539.415786448731	900.061449788694	39.233350458013	299.196729941869	966.851269182833	39.714484249129	212.974303121925	1047.515908334737	107.933453995402	230.133955922582	1174.496728828933	65.774892076449	191.029890310949	732.497085731606	1098.816586983070	164.168615351783	755.373371575797	844.677915217666	109.503626491491	1048.486550239973	1093.221097465201	684.029764594981	1285.612704034264	1033.343068430601	608.843215216754	
72	21.568214285714	707.658990205388	1006.610636834084	451.965068185797	857.937289289422	1432.396176868992	252.911802483581	993.606213904316	1358.559410829462	384.767902084838	954.533525564664	1429.699583303215	575.486912169041	882.564266697458	1490.854957083777	416.027369776580	952.153176651657	934.116890262750	527.726532606435	893.756279748937	960.495472517966	260.264959036874	953.043966703979	723.491536311616	500.399004612150	859.743863295031	626.557905808141	572.617845833757	915.769159703503	563.293392562697	487.233474276725	900.140922590724	477.707782972076	494.614171629201	965.346360459407	766.334974261859	280.319512433937	899.844169023813	639.773488621163	212.401780670502	1007.291739420839	578.017736007627	260.910732099493	1025.950889278048	508.242992089861	257.141190238554	1002.227341103836	434.961375797078	249.157736248695	916.739637829459	313.483793463050	207.151233682204	995.720707632246	204.965455760845	255.437169431982	861.980995767185	392.966041673725	504.874659087878	782.608316632598	299.891325855815	574.976281393991	804.545517450627	200.416660857474	508.340541503436	650.980938864936	43.563977125044	487.042166398522	824.704021888328	94.782971631486	515.343750787553	736.963101970702	36.434336577309	558.399760698099	944.736577296918	39.215926811717	539.474430350355	893.889271343241	38.621556664128	301.032126543076	960.599313998724	38.147323838258	214.703842989187	1042.509455623583	104.704541396206	232.033958253045	1168.907199867897	60.137517031878	192.844090941479	733.444393912202	1097.585363889991	159.934800541627	760.956386294554	843.847398964481	104.351209107046	1046.309524783918	1092.599380894817	680.758253787550	1281.967814997276	1027.440569201380	604.421866610545	
73	21.581428571429	707.905258665051	1005.893968070462	448.646437113330	858.002215472041	1431.440492800781	248.949099869456	993.309392023390	1358.053954993021	381.435270887614	953.449430916500	1429.613371054719	571.876352361997	881.931850999941	1490.329083870807	412.058470110457	951.999111350651	933.686239715949	525.307730903817	894.254390485645	959.361856729910	257.675529004173	952.626683272696	722.882199181221	498.555892767489	858.757984902792	626.294557143963	570.703026330683	914.765668953174	562.557103087754	485.678985992425	898.604323980868	476.704272461337	493.162282461853	965.053763490462	764.165995082018	278.072897887837	897.821955080032	638.032478170535	211.357183000604	1005.238379473958	575.926194355816	259.901684983586	1022.815081978663	505.910403953817	257.018026470034	999.074490447849	432.755226289905	249.025836070265	913.303141796618	311.514054386968	207.276953527487	991.347206188532	202.812011320472	256.204936045896	859.623665478504	392.386630704133	503.701951792992	779.409106345822	300.293801054413	574.171966676153	800.427356598272	200.374521214597	507.958553126763	645.754373985894	44.228001488542	487.263323133257	819.604182170464	94.914730534931	515.435286832334	731.750398874788	36.696245713612	558.531894752068	939.465554130184	39.022105979764	539.544926404819	887.859548347816	38.223754837506	302.204448702043	954.591526151389	36.923279390595	215.859438576719	1037.611203242204	101.950267797571	233.489035512047	1163.528839360859	55.144504847318	194.353281935555	734.923394032392	1096.259434657856	155.364381191668	767.017748130823	842.975663472475	99.051343292609	1043.891737537859	1092.035536299643	677.509171970290	1277.761390535128	1020.656625441349	600.207220276730	
74	21.594642857143	708.059731120689	1005.273318186370	445.180522912605	858.146591053445	1430.563405825104	244.879377305431	993.046540173725	1357.626857430837	378.048605861376	952.367980943767	1429.674671836734	568.174798606041	881.359780076409	1489.919177383642	407.967860702021	951.797824408826	933.324402771667	522.721006069743	894.690350894866	958.479361513336	254.937363971089	952.356515880176	722.409206245904	496.441688690365	858.122871957492	626.083809269996	568.607948179669	914.165882991515	561.911656192867	483.928391906301	897.533360877770	475.702885946431	491.579584121141	964.946869685623	762.410219625434	275.701407193892	896.362935111044	636.751111132618	209.920071403505	1003.566897695232	574.270272581067	258.786993654931	1020.134317557125	504.026002574905	256.717354368067	996.395852770714	430.950342727457	248.673411483749	910.492466910716	310.016410456980	206.788299425780	987.276534031559	201.064721975654	256.596349472112	857.619206147327	391.835114404733	502.425710378326	776.481940981977	300.831726316112	573.288620989294	796.494744257849	200.436775499963	507.559893533431	640.583304840916	45.183056906637	487.518876636712	814.606196743660	95.117583473494	515.556425012055	726.585615485699	37.098787971001	558.682738916751	934.228071761849	38.789806450392	539.625482840696	882.048756811321	38.033875116972	302.803974461710	948.864596343239	36.061870414211	216.503174667430	1032.815872078737	99.773121834041	234.489566248921	1158.360033372821	50.991731721751	195.480974984884	736.906806334285	1094.917197699023	150.492390119179	773.525914730468	842.143897151252	93.624969871432	1041.224823340294	1091.551663474985	674.284498068004	1272.906370784755	1013.016901966629	596.255972331673	
